<?xml version="1.0" encoding="UTF-8"?> <!-- Creator: CorelDRAW --> <svg xmlns="http://www.w3.org/2000/svg" xmlns:xlink="http://www.w3.org/1999/xlink" xml:space="preserve" width="431.509mm" height="90.5627mm" style="shape-rendering:geometricPrecision; text-rendering:geometricPrecision; image-rendering:optimizeQuality; fill-rule:evenodd; clip-rule:evenodd" viewBox="0 0 152145.3 31931.4"> <defs> <style type="text/css"> <![CDATA[ .fil0 {fill:#422527;fill-rule:nonzero} .fil1 {fill:#DF002C;fill-rule:nonzero} ]]> </style> </defs> <g id="Layer_x0020_1"> <metadata id="CorelCorpID_0Corel-Layer"></metadata> <g id="_105553355024960"> <path class="fil0" d="M54087.2 13667.8l-41 1444.6c-62,1423.8 -123.7,2373.2 -474.7,3611.3 -495.5,1733.6 -1485.8,2827.2 -3528.9,2889.2 -495.2,0 -866.6,-62 -1093.6,-185.7l0 -2373.3c164.9,62 371.5,82.5 598.4,82.5 681,0 1114.4,-392 1341.4,-1320.7 247.5,-969.8 309.7,-1836.5 330.2,-3549.3l61.7 -3033.7 8894.3 0 0 10297.7 -2909.4 0 0 -7862.7 -3178.4 0z"></path> <polygon class="fil0" points="63023.6,21530.4 63023.6,11232.8 65892.3,11232.8 65892.3,17299.9 70556,11232.8 73279.9,11232.8 73279.9,21530.4 70411.5,21530.4 70411.5,15463.1 65747.5,21530.4 "></polygon> <polygon class="fil0" points="78233.2,21530.4 78233.2,13667.8 75014.1,13667.8 75014.1,11232.8 84403.9,11232.8 84403.9,13667.8 81142.9,13667.8 81142.9,21530.4 "></polygon> <polygon class="fil0" points="89077.5,7084.7 101191.2,7084.7 101191.2,9746.9 96609.6,9746.9 96609.6,21530.4 93638.3,21530.4 93638.3,9746.9 89077.5,9746.9 "></polygon> <path class="fil0" d="M104885.3 15050.4l0 2683c475,887.1 1424.1,1526.8 2559.3,1526.8 804.6,0 1485.5,-268.2 2001.5,-825.1 515.9,-557.2 784.1,-1238.4 784.1,-2043.3 0,-825.3 -268.2,-1506.3 -784.1,-2063.5 -516,-557.2 -1196.9,-825.3 -2001.5,-825.3 -1135.2,0 -2084.3,660.2 -2559.3,1547.5zm6851.6 -2517.5c928.6,1031.9 1382.6,2311.3 1382.6,3858.8 0,1527.1 -454,2806.7 -1382.6,3859.4 -907.9,1031.6 -2063.8,1547.7 -3466.9,1547.7 -1465.3,0 -2579.8,-516 -3384.7,-1527.1l0 4408.1 -2909.6 978 0 -14425 2909.6 0 0 1258.9c763.7,-1011.4 1898.8,-1527.1 3384.7,-1527.1 1403.1,0 2559,515.7 3466.9,1568.3z"></path> <polygon class="fil0" points="127091.8,21530.4 127091.8,11232.8 129960,11232.8 129960,17299.9 134624.3,11232.8 137348.3,11232.8 137348.3,21530.4 134479.6,21530.4 134479.6,15463.1 129815.9,21530.4 "></polygon> <path class="fil0" d="M147605.2 19095.2l0 -5427.4 -3219.4 0c0,2146.3 -309.5,3962.4 -907.9,5427.4l4127.3 0zm-8419.9 5055.9l0 -5055.9 1320.9 0c783.9,-1217.3 1196.8,-3157.5 1238.1,-5860.9l41.3 -2001.6 8667.3 0 0 7862.4 1692.4 0 0 4035.6 -2745 1020.4 0 -2620.7 -7428.6 0 0 2620.7 -2786.3 0z"></path> <polygon class="fil1" points="36150.1,30429.3 36150.1,26700.3 39628.8,26700.3 39628.8,30429.3 38808.5,30429.3 38808.5,27421.6 36970.5,27421.6 36970.5,30429.3 "></polygon> <path class="fil1" d="M43455.6 29449.6c235.4,-235.4 349.3,-531.7 349.3,-888.5 0,-349.3 -113.9,-645.6 -349.3,-881 -235.1,-235.3 -524.1,-356.9 -873.4,-356.9 -349.3,0 -645.6,121.5 -880.9,356.9 -235.1,235.4 -349.3,531.7 -349.3,881 0,356.9 114.2,653.1 349.3,888.5 235.4,235.6 524.1,356.8 880.9,356.8 349.3,0 638.3,-121.2 873.4,-356.8zm-2346.5 508.6c-387.5,-379.4 -577.4,-842.8 -577.4,-1397.2 0,-546.8 189.9,-1010 577.4,-1389.6 387.1,-379.9 873,-569.8 1473.2,-569.8 592.2,0 1078.5,189.9 1466,569.8 387.5,379.6 577,842.8 577,1389.6 0,546.8 -189.6,1010 -577,1397.2 -387.5,379.9 -873.7,569.8 -1466,569.8 -600.1,0 -1086,-189.9 -1473.2,-569.8z"></path> <path class="fil1" d="M45847.7 29973.6c-387.5,-372.1 -584.9,-843.1 -584.9,-1420.5 0,-569.3 197.4,-1040.3 584.9,-1404.5 394.8,-364.7 873.1,-547.1 1435.1,-547.1 417.7,0 797.6,83.6 1124.1,258.1l0 706.4c-334.4,-159.4 -668.5,-243 -1002.4,-243 -372.3,0 -683.8,113.9 -941.8,349.3 -250.5,235.4 -379.6,531.4 -379.6,888.6 0,356.9 129,660.8 379.6,896.1 258.1,235.4 569.5,349.3 941.8,349.3 394.7,0 751.6,-91.1 1063.3,-281l0 698.8c-357.2,205.1 -752.2,303.9 -1192.4,303.9 -554.7,0 -1033,-182.4 -1427.8,-554.4z"></path> <polygon class="fil1" points="50305,30429.3 50305,27421.6 49044.1,27421.6 49044.1,26700.3 52378.3,26700.3 52378.3,27421.6 51125,27421.6 51125,30429.3 "></polygon> <path class="fil1" d="M55499.2 28917.9c-311.1,-174.8 -645.6,-265.7 -994.8,-265.7 -546.9,0 -873.2,212.7 -873.2,577.2 0,395 326.3,592.2 804.9,592.2 425.3,0 827.7,-197.2 1063.1,-448.1l0 -455.6zm1344.4 820.3l0 622.9c-113.9,83.4 -273.3,121.2 -478.6,121.2 -417.5,0 -683.1,-174.8 -782.3,-531.4 -341.7,387.2 -797.3,577.1 -1374.4,577.1 -402.7,0 -736.7,-113.9 -1002.8,-334.2 -265.6,-220.2 -394.7,-531.6 -394.7,-918.8 0,-395.4 144.5,-698.9 432.9,-911.5 288.5,-220.2 645.6,-326.3 1063.1,-326.3 448.3,0 850.6,98.5 1192.4,288.5l0 -205.1c0,-539.2 -364.5,-812.5 -1093.4,-812.5 -425.3,0 -820.3,113.6 -1177.5,333.9l0 -721.3c372.6,-212.7 820.3,-319 1359.6,-319 1033,0 1724,516.4 1724,1427.8l0 1389.6c0,235.7 129.1,372.5 311.4,372.5 83.6,0 151.8,-15.4 220.2,-53.3z"></path> <path class="fil1" d="M58476 29768.3l1184.5 0c387.5,0 615.2,-174.6 615.2,-455.6 0,-296 -227.8,-463.3 -615.2,-463.3l-1184.5 0 0 918.9zm0 -1579.3l1017.3 0c357.2,0 562,-159.6 562,-410.2 0,-280.8 -189.7,-417.8 -562,-417.8l-1017.3 0 0 828zm-820.3 2240.2l0 -3728.9 2035.5 0c751.5,0 1169.6,402.3 1169.6,949.4 0,372 -197.8,675.9 -478.9,805 486.2,144.4 729.2,463.2 729.2,957 0,630.1 -478.4,1017.6 -1306,1017.6l-2149.3 0z"></path> <polygon class="fil1" points="62067.4,30429.3 62067.4,26700.3 62887.8,26700.3 62887.8,28113 64360.9,26700.3 65409.1,26700.3 63639.7,28371.1 65675.2,30429.3 64550.9,30429.3 62887.8,28743.1 62887.8,30429.3 "></polygon> <polygon class="fil1" points="66403.5,30429.3 66403.5,26700.3 67223.8,26700.3 67223.8,29229.3 69236.3,26700.3 70003.4,26700.3 70003.4,30429.3 69183.2,30429.3 69183.2,27892.7 67170.8,30429.3 "></polygon> <polygon class="fil1" points="73146.7,30429.3 73146.7,26700.3 76625.4,26700.3 76625.4,30429.3 75805,30429.3 75805,27421.6 73967.1,27421.6 73967.1,30429.3 "></polygon> <path class="fil1" d="M78614.6 27991.2l0 1154.8c204.8,372.1 622.8,660.4 1108.7,660.4 341.7,0 630.4,-121.2 858.3,-356.8 227.8,-243 341.4,-539.2 341.4,-880.9 0,-349.3 -113.6,-645.6 -341.4,-880.9 -227.8,-243 -516.5,-364.5 -858.3,-364.5 -485.9,0 -903.9,281.2 -1108.7,668zm0 3940.2l-820.4 0 0 -5231.1 820.4 0 0 508.6c311.1,-402.3 751.6,-607.3 1329,-607.3 523.8,0 956.6,189.9 1298.7,569.8 341.7,379.6 508.7,842.8 508.7,1397.2 0,546.8 -167,1010.2 -508.7,1389.6 -342,379.9 -774.9,569.8 -1298.7,569.8 -577.4,0 -1017.9,-205.1 -1329,-607.7l0 2011.1z"></path> <path class="fil1" d="M85312.6 29449.6c235.4,-235.4 349.3,-531.7 349.3,-888.5 0,-349.3 -113.9,-645.6 -349.3,-881 -235.4,-235.3 -524.1,-356.9 -873.4,-356.9 -349.6,0 -645.6,121.5 -880.9,356.9 -235.4,235.4 -349.3,531.7 -349.3,881 0,356.9 113.9,653.1 349.3,888.5 235.3,235.6 523.8,356.8 880.9,356.8 349.3,0 638,-121.2 873.4,-356.8zm-2346.5 508.6c-387.5,-379.4 -577.5,-842.8 -577.5,-1397.2 0,-546.8 190,-1010 577.5,-1389.6 386.8,-379.9 873,-569.8 1473.2,-569.8 592.2,0 1078.1,189.9 1465.6,569.8 387.5,379.6 577.4,842.8 577.4,1389.6 0,546.8 -189.9,1010 -577.4,1397.2 -387.5,379.9 -873.4,569.8 -1465.6,569.8 -600.1,0 -1086.4,-189.9 -1473.2,-569.8z"></path> <path class="fil1" d="M90043.2 29798.8c767.3,0 1306.3,-501 1306.3,-1237.8 0,-736.7 -539,-1223 -1306.3,-1230.3l0 2468.1zm0 2132.6l-820.4 0 0 -1441.2c-653.1,-22.7 -1169.3,-205.5 -1541.7,-562 -371.9,-357.2 -561.9,-812.8 -561.9,-1367.2 0,-1101.2 774.9,-1853.1 2103.6,-1921.6l0 -1526.2 820.4 0 0 1526.2c1329,68.5 2103.6,820.4 2103.6,1921.6 0,554.4 -189.9,1010 -562,1367.2 -372,356.5 -888.6,539.2 -1541.7,562l0 1441.2zm-820.4 -4600.6c-766.7,7.3 -1305.9,493.6 -1305.9,1230.3 0,736.8 539.2,1237.8 1305.9,1237.8l0 -2468.1z"></path> <path class="fil1" d="M95639.4 28181.1c-7.3,-227.6 -90.9,-432.9 -265.7,-615 -174.5,-182.4 -410.1,-273.5 -713.7,-273.5 -599.9,0 -987.2,402.6 -1040.6,888.5l2020.1 0zm-2323.8 -1017.6c357.2,-372.1 812.8,-562 1382.3,-562 379.6,0 706.4,98.7 979.7,303.5 554.4,395.3 790,1010.3 790,1686.2l0 212.6 -2855.5 0c98.4,630.4 645.5,1002.4 1405,1002.4 432.6,0 827.7,-113.9 1199.6,-334.1l0 691.3c-341.7,243 -797.3,364.5 -1374.4,364.5 -577.4,0 -1063.3,-182.4 -1466,-546.8 -394.7,-364.7 -592.2,-835.2 -592.2,-1420.2 0,-554.4 174.8,-1025.4 531.4,-1397.5z"></path> <path class="fil1" d="M97712.8 29973.6c-387.5,-372.1 -585,-843.1 -585,-1420.5 0,-569.3 197.5,-1040.3 585,-1404.5 394.7,-364.7 873,-547.1 1435,-547.1 418.1,0 797.7,83.6 1124.2,258.1l0 706.4c-334.2,-159.4 -668.6,-243 -1002.5,-243 -372,0 -683.7,113.9 -941.8,349.3 -250.5,235.4 -379.6,531.4 -379.6,888.6 0,356.9 129.1,660.8 379.6,896.1 258.1,235.4 569.8,349.3 941.8,349.3 394.8,0 752,-91.1 1063.3,-281l0 698.8c-357.1,205.1 -752.1,303.9 -1192.4,303.9 -554.6,0 -1033,-182.4 -1427.7,-554.4z"></path> <path class="fil1" d="M101585.6 29973.6c-387.5,-372.1 -584.9,-843.1 -584.9,-1420.5 0,-569.3 197.5,-1040.3 584.9,-1404.5 394.8,-364.7 873,-547.1 1435.1,-547.1 417.7,0 797.6,83.6 1124.1,258.1l0 706.4c-334.4,-159.4 -668.3,-243 -1002.4,-243 -372.4,0 -683.8,113.9 -941.9,349.3 -250.5,235.4 -379.6,531.4 -379.6,888.6 0,356.9 129.1,660.8 379.6,896.1 258.1,235.4 569.5,349.3 941.9,349.3 394.7,0 751.6,-91.1 1063,-281l0 698.8c-356.9,205.1 -751.9,303.9 -1192.1,303.9 -554.7,0 -1033,-182.4 -1427.8,-554.4z"></path> <polygon class="fil1" points="105214.9,30429.3 105214.9,26700.3 106035.3,26700.3 106035.3,29229.3 108047.7,26700.3 108814.8,26700.3 108814.8,30429.3 107994.8,30429.3 107994.8,27892.7 105982.3,30429.3 "></polygon> <path class="fil1" d="M112642.2 29449.6c235.4,-235.4 349.3,-531.7 349.3,-888.5 0,-349.3 -113.9,-645.6 -349.3,-881 -235.4,-235.3 -524.1,-356.9 -873.4,-356.9 -349.3,0 -645.6,121.5 -880.9,356.9 -235.4,235.4 -349.3,531.7 -349.3,881 0,356.9 113.9,653.1 349.3,888.5 235.4,235.6 523.8,356.8 880.9,356.8 349.3,0 638,-121.2 873.4,-356.8zm-2346.6 508.6c-387.5,-379.4 -577.4,-842.8 -577.4,-1397.2 0,-546.8 189.9,-1010 577.4,-1389.6 387.2,-379.9 873.1,-569.8 1473.2,-569.8 592.2,0 1078.1,189.9 1465.6,569.8 387.5,379.6 577.5,842.8 577.5,1389.6 0,546.8 -190,1010 -577.5,1397.2 -387.5,379.9 -873.4,569.8 -1465.6,569.8 -600.1,0 -1086,-189.9 -1473.2,-569.8z"></path> <polygon class="fil1" points="114715,30429.3 114715,26700.3 115535,26700.3 115535,28158.4 117426.3,28158.4 117426.3,26700.3 118246.7,26700.3 118246.7,30429.3 117426.3,30429.3 117426.3,28879.7 115535,28879.7 115535,30429.3 "></polygon> <path class="fil1" d="M121792.4 28917.9c-311.1,-174.8 -645.5,-265.7 -994.8,-265.7 -546.9,0 -873.2,212.7 -873.2,577.2 0,395 326.3,592.2 804.9,592.2 425.4,0 827.7,-197.2 1063.1,-448.1l0 -455.6zm1344.5 820.3l0 622.9c-113.9,83.4 -273.3,121.2 -478.6,121.2 -417.5,0 -683.2,-174.8 -782.3,-531.4 -341.7,387.2 -797.3,577.1 -1374.4,577.1 -402.7,0 -736.7,-113.9 -1002.7,-334.2 -265.7,-220.2 -394.8,-531.6 -394.8,-918.8 0,-395.4 144.5,-698.9 432.9,-911.5 288.5,-220.2 645.6,-326.3 1063.1,-326.3 448.3,0 850.6,98.5 1192.3,288.5l0 -205.1c0,-539.2 -364.4,-812.5 -1093.3,-812.5 -425.3,0 -820.3,113.6 -1177.5,333.9l0 -721.3c372.6,-212.7 820.4,-319 1359.6,-319 1033,0 1724,516.4 1724,1427.8l0 1389.6c0,235.7 129.1,372.5 311.4,372.5 83.6,0 151.8,-15.4 220.2,-53.3z"></path> <path class="fil1" d="M125247.5 27421.6l-15.2 539.3c-7.6,546.8 -38.2,903.9 -167.2,1382.3 -167,660.7 -531.4,1070.9 -1283.3,1101.2 -99.1,0 -182.4,-7.7 -258.4,-30.3l0 -706.2c53.3,14.9 113.9,22.7 167.2,22.7 539.2,0 728.9,-516.5 751.9,-1815.2l22.7 -1215.1 3007.4 0 0 3728.9 -820.4 0 0 -3007.6 -1404.7 0z"></path> <path class="fil1" d="M131018.6 28917.9c-311.1,-174.8 -645.5,-265.7 -994.8,-265.7 -546.8,0 -873.2,212.7 -873.2,577.2 0,395 326.3,592.2 804.9,592.2 425.3,0 827.7,-197.2 1063.1,-448.1l0 -455.6zm1344.4 820.3l0 622.9c-113.9,83.4 -273.5,121.2 -478.6,121.2 -417.4,0 -683.5,-174.8 -782.2,-531.4 -341.7,387.2 -797.4,577.1 -1374.7,577.1 -402.3,0 -736.8,-113.9 -1002.4,-334.2 -265.7,-220.2 -394.8,-531.6 -394.8,-918.8 0,-395.4 144.5,-698.9 432.9,-911.5 288.5,-220.2 645.6,-326.3 1063.1,-326.3 448.3,0 850.7,98.5 1192.4,288.5l0 -205.1c0,-539.2 -364.4,-812.5 -1093.6,-812.5 -425.1,0 -820.1,113.6 -1177.3,333.9l0 -721.3c372.3,-212.7 820.4,-319 1359.6,-319 1033,0 1723.8,516.4 1723.8,1427.8l0 1389.6c0,235.7 129,372.5 311.7,372.5 83.6,0 151.7,-15.4 220.2,-53.3z"></path> <polygon class="fil1" points="133175,30429.3 133175,26700.3 133980.2,26700.3 135255.6,28249.6 136539.5,26700.3 137344.4,26700.3 137344.4,30429.3 136554.3,30429.3 136554.3,27816.6 135415.3,29191.5 135096.3,29191.5 133964.7,27816.6 133964.7,30429.3 "></polygon> <path class="fil1" d="M134073.9 8484.2c0,1023.8 -830.2,1853.7 -1853.9,1853.7 -1023.8,0 -1853.7,-829.9 -1853.7,-1853.7 0,-1023.8 829.9,-1853.7 1853.7,-1853.7 1023.7,0 1853.9,829.9 1853.9,1853.7z"></path> <path class="fil0" d="M45790.7 8983.3c-1485.6,-1465.1 -3322.4,-2187.3 -5509.9,-2187.3 -1382.6,0 -2662,309.5 -3817.6,928.6l1022.4 2376.7c873.4,-368.9 1822.8,-560.8 2836.4,-560.8 1052.7,0 1960.6,309.7 2765.6,928.6 804.9,598.4 1320.6,1403.3 1568.3,2373.2l-5489.5 0 0 2497 5634 0c-206.5,1093.8 -743.2,2001.8 -1589.2,2703.8 -846.1,680.6 -1836.5,1031.3 -2950.9,1031.3 -1150.3,0 -2150.4,-200.3 -3000.8,-590.9l-1054.3 2309.4c1153.1,677 2491.1,1026.2 4034.4,1026.2 2187.3,0 4024.1,-722.1 5530.5,-2187.2 1506.8,-1465.4 2249.4,-3240.3 2249.4,-5324.2 0,-2105 -742.6,-3879.9 -2228.7,-5324.4z"></path> <path class="fil0" d="M119827.1 13255.1c1300.1,0 2104.7,928.6 2167.1,2063.7l-4519.6 0c144.4,-1217.7 1031.6,-2063.7 2352.5,-2063.7zm3811.1 5455.7c-872,401.8 -1774,611.3 -2717.5,611.3 -1816,0 -3136.6,-742.6 -3446.1,-2146l7388 0 0 -763.7c0,-1527 -454.3,-2806.4 -1341.7,-3858.8 -887.5,-1052.6 -2063.5,-1589 -3569.9,-1589 -1589,0 -2889.2,515.7 -3879.8,1568.3 -990.7,1031.9 -1485.6,2311.3 -1485.6,3838.4 0,1630.3 556.9,2950.9 1650.5,3941.6 1093.9,990.6 2455.7,1485.8 4065.6,1485.8 1652.2,0 2927.6,-337 3851.5,-1005.8l-515.1 -2082z"></path> <path class="fil0" d="M23633 12141.5l0 11762.5c0,2789.1 -2261.1,5050.1 -5050.1,5050.1l-11866.3 0c-2789,0 -5050.1,-2261 -5050.1,-5050.1l0 -11866.2c0,-2789.1 2261.1,-5050.1 5050.1,-5050.1l10658.4 0c464.9,0 841.7,-376.8 841.7,-841.7 0,-464.9 -376.8,-841.7 -841.7,-841.7l-10658.4 0c-3559.4,0 -6473.2,2761.8 -6716.6,6259.3l0 12814.7c243.4,3497.4 3157.2,6259.2 6716.6,6259.2l11866.3 0c3718.8,0 6733.4,-3014.6 6733.4,-6733.5l0 -11762.5c0,-464.9 -376.8,-841.7 -841.6,-841.7 -464.9,0 -841.7,376.7 -841.7,841.7z"></path> <path class="fil1" d="M5310.4 12291.6l0 0c234,-171.7 556.6,-156.3 773.5,37.1l6907.1 6155.5c276.7,246.6 707.6,190 911.5,-119.2l11955.8 -18146.6c93.2,-141.5 248.5,-218.9 407,-218.2 83.1,0.3 167.1,22 243.6,67.1 222.8,131 303.6,413.8 183.7,642.7l-12010.7 22952.6c-500.8,957.2 -1844.4,1027.1 -2441.9,127.1l-7078.9 -10660.7c-182,-273.8 -116.5,-642.8 149.3,-837.2z"></path> </g> </g> </svg> 